<svg width="60" height="60" viewBox="0 0 60 60" fill="none" xmlns="http://www.w3.org/2000/svg">
<path d="M31.7695 50.0205L9.849 28.1V32.5782C9.849 33.7649 10.3192 34.9068 11.1701 35.7353L28.6124 53.1776C30.3589 54.9241 33.2025 54.9241 34.949 53.1776L48.8537 39.273C50.6001 37.5265 50.6001 34.6829 48.8537 32.9364L31.7695 50.0205Z" fill="#333333"/>
<path d="M28.6124 41.9823C29.4857 42.8555 30.6276 43.3033 31.7695 43.3033C32.9115 43.3033 34.0534 42.8555 34.9266 41.9823L48.8313 28.0776C50.5777 26.3311 50.5777 23.4875 48.8313 21.741L31.3889 4.29866C30.5604 3.47021 29.4185 3 28.2318 3H14.3271C11.8642 3 9.849 5.01517 9.849 7.47815V21.3828C9.849 22.5695 10.3192 23.7114 11.1701 24.5399L28.6124 41.9823ZM14.3271 7.47815H28.2318L45.6742 24.9205L31.7695 38.8252L14.3271 21.3828V7.47815Z" fill="#333333"/>
<path d="M19.365 15.3149C20.9108 15.3149 22.1638 14.0618 22.1638 12.5161C22.1638 10.9703 20.9108 9.71722 19.365 9.71722C17.8192 9.71722 16.5662 10.9703 16.5662 12.5161C16.5662 14.0618 17.8192 15.3149 19.365 15.3149Z" fill="#333333"/>
</svg>
