<svg width="60" height="60" viewBox="0 0 60 60" fill="none" xmlns="http://www.w3.org/2000/svg">
<path d="M50 16.1972C50 13.0986 47.4648 10.5634 44.3662 10.5634H35.9155V16.1972H44.3662V23.662L34.5634 35.9155H24.6479V21.831H13.3803C7.15492 21.831 2.11267 26.8732 2.11267 33.0986V41.5493H7.74647C7.74647 46.2253 11.5211 50 16.1972 50C20.8732 50 24.6479 46.2253 24.6479 41.5493H37.2676L50 25.6338V16.1972ZM7.74647 35.9155V33.0986C7.74647 30 10.2817 27.4648 13.3803 27.4648H19.0141V35.9155H7.74647ZM16.1972 44.3662C14.6479 44.3662 13.3803 43.0986 13.3803 41.5493H19.0141C19.0141 43.0986 17.7465 44.3662 16.1972 44.3662Z" fill="#333333"/>
<path d="M10.5634 13.3803H24.6479V19.0141H10.5634V13.3803ZM50 33.0986C45.3239 33.0986 41.5493 36.8732 41.5493 41.5493C41.5493 46.2254 45.3239 50 50 50C54.676 50 58.4507 46.2254 58.4507 41.5493C58.4507 36.8732 54.676 33.0986 50 33.0986ZM50 44.3662C48.4507 44.3662 47.1831 43.0986 47.1831 41.5493C47.1831 40 48.4507 38.7324 50 38.7324C51.5493 38.7324 52.8169 40 52.8169 41.5493C52.8169 43.0986 51.5493 44.3662 50 44.3662Z" fill="#333333"/>
</svg>
