<svg width="60" height="60" viewBox="0 0 60 60" fill="none" xmlns="http://www.w3.org/2000/svg">
<path d="M14.1775 10.6425C23.9975 2.595 38.51 3.155 47.6775 12.3225C57.44 22.085 57.44 37.915 47.6775 47.6775C37.915 57.44 22.085 57.44 12.3225 47.6775C9.32661 44.6857 7.14022 40.9815 5.96868 36.9128C4.79715 32.8441 4.67889 28.5444 5.62503 24.4175L5.81753 23.635L10.6525 24.91C9.45389 29.4657 9.90177 34.2982 11.9172 38.556C13.9327 42.8137 17.3864 46.2234 21.6696 48.1842C25.9529 50.1449 30.7907 50.5308 35.3307 49.2739C39.8706 48.017 43.8211 45.198 46.4861 41.3135C49.1511 37.4291 50.3594 32.7287 49.8981 28.0406C49.4369 23.3526 47.3356 18.9778 43.9647 15.6873C40.5938 12.3967 36.1696 10.4017 31.4717 10.0537C26.7739 9.70566 22.104 11.0271 18.285 13.785L17.7325 14.2L20.275 16.7425L8.78503 19.3925L11.435 7.9025L14.1775 10.6425ZM32.5 15V20H38.75V25H25C24.6877 24.9994 24.3864 25.1158 24.1556 25.3263C23.9247 25.5367 23.7811 25.826 23.7528 26.1371C23.7246 26.4481 23.8139 26.7585 24.0031 27.0071C24.1923 27.2556 24.4677 27.4243 24.775 27.48L25 27.5H35C36.6576 27.5 38.2474 28.1585 39.4195 29.3306C40.5916 30.5027 41.25 32.0924 41.25 33.75C41.25 35.4076 40.5916 36.9973 39.4195 38.1694C38.2474 39.3415 36.6576 40 35 40H32.5V45H27.5V40H21.25V35H35C35.3124 35.0006 35.6137 34.8842 35.8445 34.6737C36.0753 34.4633 36.219 34.174 36.2472 33.8629C36.2754 33.5519 36.1862 33.2415 35.997 32.9929C35.8078 32.7444 35.5324 32.5757 35.225 32.52L35 32.5H25C23.3424 32.5 21.7527 31.8415 20.5806 30.6694C19.4085 29.4973 18.75 27.9076 18.75 26.25C18.75 24.5924 19.4085 23.0027 20.5806 21.8306C21.7527 20.6585 23.3424 20 25 20H27.5V15H32.5Z" fill="#333333"/>
</svg>
